<svg xmlns="http://www.w3.org/2000/svg" xml:space="preserve" style="fill-rule:evenodd;clip-rule:evenodd;stroke-linejoin:round;stroke-miterlimit:2" viewBox="0 0 100 19"><path d="M20.907 14.269c-.1-.528-.257-1.042-.407-1.562a6 6 0 0 0-.671-1.427 6.07 6.07 0 0 0-2.25-2.162q-.388-.227-.786-.421a8.4 8.4 0 0 0-2.6-.849 9 9 0 0 0-1.336-.078c-1.75.013-3.469.465-5 1.312a8 8 0 0 0-2.25 1.848 4.5 4.5 0 0 0-1.078 2.626 3.22 3.22 0 0 0 .757 2.247 4.35 4.35 0 0 0 2.028 1.32 8 8 0 0 0 2.086.385h.714a19 19 0 0 0 2.379-.178h.171a1.664 1.664 0 0 0 1.622 1.27h.271a1.73 1.73 0 0 0 1.429-1.712c1.107-.179 4-.571 5.121-.785h.05a8.2 8.2 0 0 0-.25-1.834m-1.05-1.334q.228.704.386 1.427c0 .2.071.378.1.535.028.157.078.407.1.556-.793.129-1.95.3-2.914.443l-1.679.25a1.66 1.66 0 0 0-1.536-1.006 1.71 1.71 0 0 0-1.7 1.484c-.371 0-.714.049-1.114.049h-.593a6.8 6.8 0 0 1-1.728-.264 3.4 3.4 0 0 1-1.572-1.041 2.47 2.47 0 0 1-.571-1.655 3.57 3.57 0 0 1 .821-2.084A6.4 6.4 0 0 1 9.7 10.06a8.76 8.76 0 0 1 4.15-1.163h.093a6.11 6.11 0 0 1 5.043 2.319c.1.142.193.285.278.42.257.405.458.842.6 1.299zM4.286 9.746a.561.561 0 0 1-.393-.949 12.68 12.68 0 0 1 8.864-3.567h.1c2.06.049 4.08.584 5.893 1.562.876.45 1.704.988 2.471 1.605.182.118.28.329.251.544a.559.559 0 0 1-.965.298 13 13 0 0 0-2.286-1.477 11.8 11.8 0 0 0-5.457-1.427 11.54 11.54 0 0 0-8.071 3.247.57.57 0 0 1-.4.164zM2.293 7.677a.65.65 0 0 1-.464-.2.63.63 0 0 1 .042-.885c3.672-3.346 8.379-3.881 10.85-3.909 2.547.025 5.057.612 7.35 1.719A17 17 0 0 1 23.1 6.171a.613.613 0 0 1 .114.871.62.62 0 0 1-.871.114 17 17 0 0 0-2.857-1.641 16.1 16.1 0 0 0-6.629-1.591h-.121c-2.3 0-6.657.521-10 3.567a.6.6 0 0 1-.415.164zM.714 5.857a.712.712 0 0 1-.5-1.191C4.479.713 9.936 0 12.807 0a17.6 17.6 0 0 1 4.722.621c1.31.356 2.585.834 3.807 1.427a21 21 0 0 1 3.514 2.14.713.713 0 0 1-.857 1.077 19.5 19.5 0 0 0-3.279-1.997 18.4 18.4 0 0 0-7.75-1.891h-.107c-2.707.05-7.778.621-11.7 4.331a.7.7 0 0 1-.443.149"/><path d="M95.829 15.377a3.06 3.06 0 0 1-2.979 2.141 3.1 3.1 0 0 1-2.143-.778l.843-1.534c.335.28.756.438 1.193.449a1.49 1.49 0 0 0 1.393-1.013l.314-.713-3.736-8.934h2.05l2.743 6.936 2.514-6.936H100zM74.543 9.576c0 2.733-1.722 4.61-4.343 4.61a3.58 3.58 0 0 1-3.236-1.649v4.917H65V4.995h1.986v1.548a3.57 3.57 0 0 1 3.2-1.648c2.607 0 4.378 1.891 4.378 4.681zm-30.7 3.425a3.7 3.7 0 0 1-3.029 1.206c-1.985 0-3.221-1.227-3.221-2.854s1.257-2.74 3.464-2.755h2.772V8.32c0-1.156-.715-1.841-2.186-1.841a4.83 4.83 0 0 0-2.707.928l-.793-1.363a6.7 6.7 0 0 1 3.943-1.149c2.357 0 3.685 1.199 3.707 3.218v6.008h-1.936zm-7.5-6.579-1.086 1.277a3.46 3.46 0 0 0-2.614-1.07 2.717 2.717 0 0 0-2.722 2.926 2.707 2.707 0 0 0 2.722 2.925 3.4 3.4 0 0 0 2.7-1.063l1.086 1.063a4.68 4.68 0 0 1-3.893 1.706 4.414 4.414 0 0 1-4.622-4.631 4.42 4.42 0 0 1 1.276-3.354 4.43 4.43 0 0 1 3.346-1.306 4.83 4.83 0 0 1 3.807 1.527M63.057 8.42v5.708h-1.986V8.969a2.03 2.03 0 0 0-2.142-2.233c-1.565.05-2.515 1.256-2.515 2.854v4.531h-2.007V8.969a2.026 2.026 0 0 0-2.143-2.233 2.62 2.62 0 0 0-2.55 2.854v4.531h-1.978V4.995H49.7v1.741a3.39 3.39 0 0 1 3.329-1.841 3.06 3.06 0 0 1 3.185 2.198c.586-1.527 1.807-2.198 3.479-2.198 2.143 0 3.364 1.341 3.364 3.525m15.257-7.071h-1.978v12.772h1.978zm2.122 3.646H82.4v9.126h-1.964zm6.707-.771v1.078h2.393v1.484h-2.393v7.335h-1.964V6.786h-1.208V5.302h1.208V4.41a2.995 2.995 0 0 1 3.15-3.147 3.52 3.52 0 0 1 2.071.635l-.764 1.513a2.23 2.23 0 0 0-1.257-.428 1.144 1.144 0 0 0-1.236 1.241m-43.3 6.672v-.842h-2.479c-1.293 0-1.9.343-1.9 1.227s.672 1.356 1.779 1.356c1.428 0 2.5-.713 2.6-1.741m28.7-1.391a2.79 2.79 0 0 0-4.226-2.534 2.79 2.79 0 0 0-1.353 2.534 2.799 2.799 0 1 0 5.579 0m10.036-7.122a1.155 1.155 0 0 1-1.736 1.001 1.155 1.155 0 0 1 .578-2.157c.64 0 1.158.518 1.158 1.156"/></svg>