<svg xmlns="http://www.w3.org/2000/svg" xml:space="preserve" style="fill-rule:evenodd;clip-rule:evenodd;stroke-linejoin:round;stroke-miterlimit:2" viewBox="0 0 100 100"><path d="M14.997 33.585C16.575 15.703 31.733 1.528 50 1.528s33.425 14.175 35.003 32.054C93.51 34.547 100 41.761 100 50.417c0 8.818-6.735 16.139-15.476 16.882-3.576 9.394-10.758 16.719-19.947 20.677q.006.178.006.357a10.106 10.106 0 0 1-10.139 10.139c-5.555 0-10.138-4.583-10.138-10.139s4.583-10.139 10.138-10.139c3.963 0 7.43 2.332 9.093 5.684 8.03-3.639 14.344-10.478 17.435-18.909V36.667C80.972 19.583 67.083 5.694 50 5.694S19.028 19.583 19.028 36.667v28.611c0 1.111-.972 2.083-2.084 2.083C7.639 67.361 0 59.722 0 50.417c0-8.648 6.597-15.856 14.997-16.832m39.447 48.776a5.93 5.93 0 0 0-5.972 5.972 5.93 5.93 0 0 0 5.972 5.973 5.93 5.93 0 0 0 5.973-5.973c0-3.194-2.778-5.972-5.973-5.972M14.861 37.778c-6.111.972-10.694 6.25-10.694 12.639S8.75 62.083 14.861 63.056zm70.278 0v25.278c6.111-.973 10.694-6.25 10.694-12.639S91.25 38.75 85.139 37.778" style="fill-rule:nonzero"/></svg>