<svg xmlns="http://www.w3.org/2000/svg" xml:space="preserve" style="fill-rule:evenodd;clip-rule:evenodd;stroke-linejoin:round;stroke-miterlimit:2" viewBox="0 0 100 100"><path d="M49.789 99.146c.477.172.999.172 1.477 0 24.65-8.902 35.902-19.804 39.168-39.155l.001-.002c2.07-12.351-.264-41.867-.264-41.867a2.17 2.17 0 0 0-2.03-1.996c-1.27-.08-4.399-1.098-8.323-2.522-9.604-3.486-23.679-9.535-27.588-12.448a2.17 2.17 0 0 0-2.584-.011c-3.921 2.872-18.184 8.995-27.915 12.528-3.975 1.443-7.145 2.476-8.425 2.556a2.175 2.175 0 0 0-2.033 1.997s-2.333 29.516-.25 41.868c3.267 19.45 14.108 30.148 38.766 39.052m.738-4.358c-22.184-8.139-32.241-17.705-35.216-35.415v-.002c-1.738-10.303-.283-32.866.172-39.147 1.857-.453 4.58-1.32 7.732-2.464 9.243-3.356 22.389-9.023 27.707-12.256 5.287 3.261 18.276 8.871 27.413 12.187 3.105 1.127 5.79 1.981 7.627 2.429.455 6.28 1.912 28.844.185 39.149-2.976 17.63-13.42 27.374-35.619 35.519zM32.381 49.814l10.267 12.439a2.173 2.173 0 0 0 3.171.196l24.515-23.188a2.175 2.175 0 0 0-2.987-3.159l-22.826 21.59-8.786-10.646a2.175 2.175 0 0 0-3.354 2.768"/></svg>